<svg xmlns="http://www.w3.org/2000/svg" xmlns:xlink="http://www.w3.org/1999/xlink" width="95.556" height="96.912" viewBox="0 0 95.556 96.912">
  <defs>
    <clipPath id="clip-path">
      <rect id="Rectangle_2148" data-name="Rectangle 2148" width="95.556" height="96.912" fill="none"/>
    </clipPath>
  </defs>
  <g id="Group_6055" data-name="Group 6055" transform="translate(0)">
    <g id="Group_6054" data-name="Group 6054" transform="translate(0)" clip-path="url(#clip-path)">
      <path id="Path_5465" data-name="Path 5465" d="M45,59.339a3.769,3.769,0,0,1-.264.347c-.132.132-.275.255-.42.375a27.22,27.22,0,0,1-6.671,3.814A21.573,21.573,0,0,1,25.6,65.521,31.6,31.6,0,0,1,14.559,61.59,23.186,23.186,0,0,1,3.98,48.782c-1.1-3.1-1.924-6.286-2.851-9.359.028-.054-.042.039-.072.144a24.669,24.669,0,0,0-.6,11.85A24.059,24.059,0,0,0,11.391,67.495a33.361,33.361,0,0,0,15.769,5.319A34.906,34.906,0,0,0,41.37,71.187c1.037-.354,2.094-.653,3.015-.937a22.768,22.768,0,0,0-.282,2.865c.049,1.932,1.467,3.009,2.958,2.3.1.762-.466,1.078-.911,1.465-1.2,1.043-2.415,2.067-3.585,3.142a1,1,0,0,0-.279.865.962.962,0,0,0,.808.438,11.162,11.162,0,0,0,2.412-.622,21.228,21.228,0,0,0,2.264-1.232c.233.984.447,1.885.661,2.786.137.577.469.749,1,.529.112-1.031.22-2.028.34-3.137a5.471,5.471,0,0,0,.722.665c.746.45,1.226,1.378,2.3,1.241.706-.089,1.047-.645.636-1.22a31.7,31.7,0,0,0-2.007-2.565c-.627-.707-1-1.269-.438-2.3a4.441,4.441,0,0,0-.72-5.456,8.066,8.066,0,0,0,2.279-4.285c.017-.159.19-.314.318-.444.9-.907,1.867-1.75,2.69-2.718A17.122,17.122,0,0,0,59.7,49.456a15.524,15.524,0,0,0-3.4-8.413c-.462-.586-1.415-1.019-1.124-2.019a3.878,3.878,0,0,0-1.167-3.894c-.981-1.084-1.774-1.026-2.556.261a1.608,1.608,0,0,1,.55-1.785,16.326,16.326,0,0,0,2.6-2.773,4.353,4.353,0,0,0-.585-6.132,2.261,2.261,0,0,0-1.545-.6c-.395.037-.737.639-1.056.945a1.153,1.153,0,0,1,.8-1.5,12.019,12.019,0,0,0,2.21-1.367c2.431-1.772,4.918-3.481,7.236-5.394,2.361-1.949,4.037-4.356,3.7-7.668a6.063,6.063,0,0,0-2.465-4.519,7.6,7.6,0,0,0-5.948-1.176,4.3,4.3,0,0,1-1.222.025,1.222,1.222,0,0,1-1.01-1.785c.121-.261.179-.739.031-.9A2.476,2.476,0,0,0,53.6.09a2.877,2.877,0,0,0-1.422,0,2.578,2.578,0,0,0-1.185.758c-.141.162-.043.7.128.931a7.416,7.416,0,0,0,1.644,1.862c.91.608.906,1.207.659,2.167-.446,1.731-.664,3.541.7,5.024a16.5,16.5,0,0,0,2.029,1.609A22.955,22.955,0,0,1,50.942,17.6l-.556-4.287a1.378,1.378,0,0,0-.367-1.748,4.822,4.822,0,0,0,.386-1.62c-.061-.448-.5-.843-.794-1.286,1.5-.4,1.405-1.785,1.167-2.987-.328-1.652-1.9-1.531-3.225-1.721,1.33-.984,1.6-2.125.789-3.088A1.978,1.978,0,0,0,45.306.6c-1.1,1.037-.968,1.9.55,3.371a2.4,2.4,0,0,0-2.48,1.485,2.784,2.784,0,0,0,1.2,3.174c-.98.949-.982,1.89-.088,2.554l-.8,1.21-3.666-1.722c1.39-2.331.252-4.183-1.05-5.9.836-.872,1.671-1.648,2.378-2.527a1.547,1.547,0,0,0,.3-1.337c-.2-.339-.838-.452-1.307-.589a1.8,1.8,0,0,0-.886,0A2.777,2.777,0,0,0,38.1.83c-.2.22.011.823.036,1.256.017.3.161.747.021.869a6.737,6.737,0,0,1-1.99,1.421c-2.686.947-5.054,2.212-6.291,4.977a1.347,1.347,0,0,1-.814.512c-2.226.653-4.479,1.218-6.687,1.921-2.823.9-5.477,2.529-8.649,1.693,1.9,3.53,3.716,6.96,5.6,10.35a22.6,22.6,0,0,0,1.943,2.717.713.713,0,0,0,1.245-.021c.3-.387.47-.88.778-1.26A14.47,14.47,0,0,1,25.315,23a8.207,8.207,0,0,1,5.094-1.486c3.274-.1,6.214.656,8.359,3.322.823,1.024,1.664,2.076,1.207,3.617A3.182,3.182,0,0,0,40,30.586a1.986,1.986,0,0,1-.469,2.365,13.847,13.847,0,0,1-2.153,2.183,15.584,15.584,0,0,1-14.136,3.319c-1.084-.265-2.175-.5-3.4-.784l8.571,13.865c1.1-.882,2.149-1.79,3.263-2.615,2.473-1.833,5.134-3.114,8.349-2.887.837.059,1.11.3,1.052,1.109a2.779,2.779,0,0,0,.217,1.263,3.656,3.656,0,0,0,3.6,2.424c-.715.654-1.379,1.254-2.034,1.866a3.882,3.882,0,0,0-1.074,4.195A3.233,3.233,0,0,0,45,59.339M70.7,46.264l-.14-.178a17.83,17.83,0,0,0-2.811,1.6A39.07,39.07,0,0,0,64.5,50.9a10.73,10.73,0,0,0-3.054,10.015c.963,4.786,3.615,8.151,8.352,9.7a17.535,17.535,0,0,0,7.434.78,17.944,17.944,0,0,0,5.493-1.277A17.371,17.371,0,0,0,89.4,64.544a23.236,23.236,0,0,0,3.554-6.911,24.645,24.645,0,0,0,.877-9.21,14.888,14.888,0,0,0-1.74-6.216,12.03,12.03,0,0,0-6.886-5.953,18.294,18.294,0,0,0-4.349-.857,17.279,17.279,0,0,0-3.327.333c-1.665.194-3.326.431-4.994.586-2.652.247-5.318.542-7.909-.391A15.2,15.2,0,0,1,58.7,31.982c-.285-.3-.609-.564-.931-.858-.226,2.151-.471,4.189-.642,6.233a9.415,9.415,0,0,0-.013,3.125c.586,2.19,2.473,3.089,4.44,3.664,2.826.826,5.7.337,8.54-.018s5.695-.736,8.508-.107c3.065.685,4.373,1.838,5.11,4.735a15.3,15.3,0,0,1,.188,6.8c-.694,3.522-2.42,6.274-5.862,7.731a6.824,6.824,0,0,1-7.563-1.4,8.891,8.891,0,0,1-2.019-6.494,30.078,30.078,0,0,1,1.076-5.729,35.725,35.725,0,0,1,1.163-3.4M9.941,90.453a2.619,2.619,0,0,1,.138-.4c1.275-2.418,2.3-3.189,4.776-2.419A14.663,14.663,0,0,1,17.342,88.9c2.346,1.271,4.61,2.722,7.042,3.8,6.029,2.662,12.462,3.669,18.982,4.116a58.61,58.61,0,0,0,7.01,0,72.92,72.92,0,0,0,8.543-.774,93.47,93.47,0,0,0,10.2-2.349,79.486,79.486,0,0,0,13.593-5.52c2.415-1.217,3.46-.928,5.167,1.229.271.342.543.683.67.842a17.776,17.776,0,0,1,2.666-3.58c1.356-1.108,2.85.165,4.332.5a6.828,6.828,0,0,0-.007-.787c-.029-.243-.156-.478-.163-.718a9.456,9.456,0,0,0-2.385-6.389,8.278,8.278,0,0,0-6.473-2.715,12.577,12.577,0,0,0-6.995,2.49A47.409,47.409,0,0,1,67.3,85.656,52.148,52.148,0,0,1,57,88c-2.78.317-5.57.623-8.362.725a35.621,35.621,0,0,1-5.779-.363c-2.793-.356-5.6-.713-8.34-1.345a36.082,36.082,0,0,1-10.444-4.086c-2.664-1.589-5.348-3.154-8.1-4.582A8.868,8.868,0,0,0,3.851,81.711a16.77,16.77,0,0,0-2.275,7.381A22.114,22.114,0,0,1,3.946,87.42c1.963-1.03,3.136-1.335,4.623.474a14.672,14.672,0,0,1,1.372,2.559m46.633-67.97a17.573,17.573,0,0,0,5.48,5.659,21.463,21.463,0,0,0,9.238,3.425,22.959,22.959,0,0,0,9.264-.25,10.221,10.221,0,0,0,4.279-2.159l-4.776-7.15a8.67,8.67,0,0,1-4.186,2.961,16.065,16.065,0,0,1-8.449.724,67.362,67.362,0,0,1-6.546-1.662c-1.444-.419-2.836-1.012-4.305-1.547m12.867-8.07A7.1,7.1,0,0,0,64.507,15.8a4.129,4.129,0,0,0-.449,6.534,6.934,6.934,0,0,0,9.836-.565,4.073,4.073,0,0,0-.129-5.122,6.42,6.42,0,0,0-4.324-2.236" transform="translate(0 0)" fill="#fff" fill-rule="evenodd"/>
      <path id="Path_5466" data-name="Path 5466" d="M45,59.338a3.234,3.234,0,0,1-3.208-2.45,3.884,3.884,0,0,1,1.074-4.195c.655-.611,1.32-1.212,2.034-1.866a3.656,3.656,0,0,1-3.6-2.424,2.786,2.786,0,0,1-.217-1.263c.058-.811-.215-1.05-1.052-1.11-3.215-.227-5.876,1.054-8.349,2.887-1.114.826-2.167,1.733-3.262,2.616L19.842,37.668c1.228.282,2.319.519,3.4.784a15.588,15.588,0,0,0,14.137-3.32,13.844,13.844,0,0,0,2.152-2.183A1.986,1.986,0,0,0,40,30.585a3.184,3.184,0,0,1-.028-2.132c.457-1.541-.384-2.594-1.207-3.618-2.144-2.666-5.085-3.424-8.359-3.322A8.216,8.216,0,0,0,25.315,23a14.527,14.527,0,0,0-2.023,2.266c-.308.38-.477.873-.778,1.26a.713.713,0,0,1-1.245.021,22.6,22.6,0,0,1-1.943-2.717c-1.885-3.39-3.7-6.82-5.6-10.35,3.172.836,5.827-.795,8.649-1.693,2.209-.7,4.462-1.268,6.687-1.921a1.344,1.344,0,0,0,.814-.512c1.238-2.765,3.605-4.03,6.292-4.977a6.74,6.74,0,0,0,1.989-1.421c.14-.122,0-.571-.021-.869C38.11,1.653,37.9,1.05,38.1.83A2.776,2.776,0,0,1,39.457.323a1.782,1.782,0,0,1,.886,0c.469.137,1.112.25,1.307.589a1.545,1.545,0,0,1-.3,1.337c-.707.879-1.542,1.655-2.378,2.527,1.3,1.714,2.441,3.567,1.051,5.9L43.688,12.4l.8-1.21c-.894-.665-.892-1.605.088-2.554a2.783,2.783,0,0,1-1.2-3.174,2.4,2.4,0,0,1,2.48-1.485C44.338,2.5,44.2,1.641,45.306.6a1.977,1.977,0,0,1,3.035.257c.811.963.541,2.1-.789,3.088,1.326.19,2.9.07,3.225,1.722.239,1.2.335,2.591-1.167,2.987.291.443.733.838.795,1.287a4.84,4.84,0,0,1-.386,1.62,1.377,1.377,0,0,1,.367,1.748c.212,1.642.374,2.889.555,4.288a22.948,22.948,0,0,0,5.209-5.16,16.486,16.486,0,0,1-2.029-1.609c-1.366-1.484-1.148-3.294-.7-5.025.248-.959.251-1.558-.659-2.167a7.406,7.406,0,0,1-1.644-1.862c-.171-.233-.269-.768-.128-.93A2.577,2.577,0,0,1,52.174.089a2.877,2.877,0,0,1,1.422,0A2.469,2.469,0,0,1,54.745.76c.149.157.09.635-.03.9a1.221,1.221,0,0,0,1.009,1.785,4.277,4.277,0,0,0,1.222-.025,7.6,7.6,0,0,1,5.948,1.176,6.061,6.061,0,0,1,2.465,4.519c.342,3.312-1.334,5.718-3.7,7.668-2.317,1.913-4.8,3.621-7.236,5.393a12.014,12.014,0,0,1-2.209,1.367,1.153,1.153,0,0,0-.8,1.5c.319-.306.662-.908,1.056-.945a2.261,2.261,0,0,1,1.545.6,4.354,4.354,0,0,1,.586,6.132,16.331,16.331,0,0,1-2.6,2.773,1.607,1.607,0,0,0-.549,1.785c.782-1.287,1.574-1.345,2.555-.261a3.877,3.877,0,0,1,1.167,3.894c-.29,1,.662,1.433,1.124,2.019a15.524,15.524,0,0,1,3.4,8.413A17.122,17.122,0,0,1,55.557,62.56c-.823.969-1.794,1.812-2.69,2.718-.128.13-.3.285-.318.444a8.062,8.062,0,0,1-2.279,4.285,4.439,4.439,0,0,1,.72,5.456c-.561,1.031-.189,1.594.438,2.3a31.716,31.716,0,0,1,2.006,2.564c.412.575.07,1.132-.635,1.221-1.078.136-1.558-.792-2.3-1.242a5.393,5.393,0,0,1-.722-.665c-.12,1.109-.228,2.106-.341,3.137-.534.221-.867.049-1-.529-.214-.9-.427-1.8-.661-2.786A21.067,21.067,0,0,1,45.505,80.7a11.158,11.158,0,0,1-2.411.622.963.963,0,0,1-.809-.438,1,1,0,0,1,.28-.865c1.17-1.075,2.385-2.1,3.584-3.142.446-.387,1.012-.7.911-1.465-1.491.715-2.909-.363-2.958-2.3a22.661,22.661,0,0,1,.282-2.865c-.922.285-1.977.583-3.015.937a34.906,34.906,0,0,1-14.209,1.627,33.355,33.355,0,0,1-15.769-5.319A24.058,24.058,0,0,1,.459,51.416a24.662,24.662,0,0,1,.6-11.85c.03-.1.1-.2.072-.144.926,3.073,1.756,6.263,2.851,9.359A23.182,23.182,0,0,0,14.559,61.589,31.583,31.583,0,0,0,25.6,65.52a21.572,21.572,0,0,0,12.037-1.646,27.22,27.22,0,0,0,6.671-3.814c.145-.119.288-.242.421-.375A3.77,3.77,0,0,0,45,59.338M57.672,11.919a13.944,13.944,0,0,1-1.009,1.336,43,43,0,0,1-4.35,4.371c-1.819,1.42-3.913,2.486-5.875,3.726-2.736,1.729-4.881,3.908-5.569,7.235-.357,1.729.191,2.977,1.562,3.154a16.957,16.957,0,0,0,2.057.014,3.46,3.46,0,0,0-.319-.767,1.6,1.6,0,0,1-.091-2.137,19.324,19.324,0,0,1,3.254-3.282c2.042-1.454,4.324-2.567,6.4-3.979,2.456-1.671,4.88-3.411,7.171-5.3,2.19-1.805,3.815-4,3.583-7.119a5.268,5.268,0,0,0-3.79-4.651,14.846,14.846,0,0,0-5.97.063c-1.247,3.727-1.142,6.028,2.947,7.336m-27.438-.035A5.138,5.138,0,0,0,31.755,15.4a38.113,38.113,0,0,0,3.633,3.227c1.751,1.27,3.618,2.386,5.476,3.5.789.472,1.694.05,2.252-.89a1.445,1.445,0,0,0-.465-2.02c-.449-.329-.91-.64-1.363-.965-1.361-.974-2.777-1.883-4.063-2.947-1.037-.858-.973-1.674-.037-2.613.354-.356.724-.7,1.064-1.068,1.7-1.85,2.015-3.564.5-5.664-.516-.717-1.075-1.124-2.015-.706s-2.014.64-2.924,1.138a6.39,6.39,0,0,0-3.581,5.493M52.652,24.933a9.674,9.674,0,0,1-3.883,5.16c-1.814,1.291-3.729,2.439-5.541,3.732-1.958,1.4-2.809,3.876-1.331,5.751a2.136,2.136,0,0,0,2.036,1.034c.814-.13.828-.863.944-1.521A4.32,4.32,0,0,1,46.4,36.2c1.2-.872,2.5-1.6,3.769-2.364a8.821,8.821,0,0,0,4.379-5.078,3.284,3.284,0,0,0-1.9-3.823m.019,10.4a1,1,0,0,0-.147.213c-.976,2.7-3.005,4.409-5.368,5.858a26.34,26.34,0,0,0-4,2.859,3.3,3.3,0,0,0-.184,5.018c1.228,1.032,2.179.729,2.409-.832a3.93,3.93,0,0,1,1.451-2.722,21.536,21.536,0,0,1,2.551-1.686,11.385,11.385,0,0,0,4.513-4.067c1.064-1.784.319-4.1-1.221-4.64m-.192,9.33A9.219,9.219,0,0,1,48.434,49.8c-1.708,1.223-3.686,2.051-5.123,3.676a3.171,3.171,0,0,0,.317,4.559c.935.713,1.816.417,1.955-.695a4.235,4.235,0,0,1,1.8-3.108c1.524-1.052,3.179-1.929,4.634-3.065a4.668,4.668,0,0,0,2.053-4.526,2.44,2.44,0,0,0-1.59-1.977m.11,8.79c-.713,2.267-2.385,3.7-4.219,4.962-1.118.772-2.311,1.436-3.435,2.2a2.907,2.907,0,0,0-.324,4.819c.774.557,1.34.364,1.546-.573a4.939,4.939,0,0,1,2.5-3.5,13.919,13.919,0,0,0,4.171-2.94c1.234-1.454,1.663-3.788-.242-4.971m-1.464,9.5A10.423,10.423,0,0,1,48.2,67.674c-.621.568-1.3,1.084-1.866,1.7a4.1,4.1,0,0,0-1.154,4.338c.165.467.3,1.115,1.092,1.043a3.269,3.269,0,0,0,.081-.383,5.818,5.818,0,0,1,2.189-4.164,12.473,12.473,0,0,0,2.092-2.1,4.748,4.748,0,0,0,.5-5.151M45.306,21c1.241-.747,2.31-1.416,3.4-2.043,1.314-.753,1.393-.855,1.215-2.33-.06-.49-.183-.971-.251-1.317H45.306Zm1.23-16.136c0,.018,0,.036,0,.054a8.917,8.917,0,0,0-1.225.01,1.188,1.188,0,0,0-1.087,1.283c-.031.727.145,1.41.915,1.518a23.047,23.047,0,0,0,3.733.214c.727-.019,1.137-.522,1.08-1.352-.047-.682-.021-1.361-.9-1.478-.832-.111-1.671-.168-2.508-.249m3.67,19.778c-1.269.893-2.459,1.7-3.611,2.559-.342.255-.774.627-.824.992a22.253,22.253,0,0,0-.039,2.872c.765-.466,1.382-.8,1.958-1.2,1.7-1.165,3.191-2.453,2.606-4.85-.007-.03-.014-.061-.089-.373m-3.96,16.263c.816-.526,1.613-.975,2.338-1.52,1.5-1.13,2.488-2.5,1.773-4.507-4.013,1.7-4.636,2.716-4.111,6.027M50.35,71.7c-.75,4.109-3.988,6.046-6.576,8.525,1.988-.31,3.454-1.53,4.892-2.686l3.7,3.169.2-.221-3.191-3.85c.907-1.411,1.649-2.923.976-4.936m-3.8-21.956c2.539-1.155,4.436-2.5,3.641-5.048-2.7,1.164-4.182,2.163-3.641,5.048m.372,8.336c2.641-1.2,3.563-2.163,3.042-4.414-2.645,1.39-3.405,1.786-3.042,4.414m2.758,3.892c-2.557.9-2.73,2.467-2.257,5.154a5.389,5.389,0,0,0,2.257-5.154M46.95.953c-.9-.02-1.359.258-1.4.987-.047.827.554,1.073,1.2,1.112.576.036,1.121-.128,1.113-.912A1.072,1.072,0,0,0,46.95.953m2.6,9.48c-.286-.772-2.491-1.049-4.949-.656.279.292.447.625.625.631,1.426.042,2.854.024,4.324.024m-1.44,64.246a4.076,4.076,0,0,0,1-3.6c-1.5,1.041-1.807,2.156-1,3.6M49.631,12.63c-.075-.116-.15-.234-.225-.351-1.371,0-2.742-.01-4.113.013-.163,0-.322.182-.484.279.153.107.3.294.46.306,1.206.087,2.414.167,3.623.183.245,0,.493-.279.739-.429m-3.682,1.213a2.5,2.5,0,0,0,3.415.188l-3.415-.188" transform="translate(0 0)" fill="#fe0000" fill-rule="evenodd"/>
      <path id="Path_5467" data-name="Path 5467" d="M109.238,67.315a35.78,35.78,0,0,0-1.163,3.4A30.031,30.031,0,0,0,107,76.442a8.89,8.89,0,0,0,2.019,6.494,6.824,6.824,0,0,0,7.563,1.4c3.442-1.458,5.167-4.21,5.862-7.732a15.31,15.31,0,0,0-.188-6.8c-.737-2.9-2.046-4.05-5.11-4.735-2.813-.628-5.664-.249-8.508.107s-5.713.845-8.54.019c-1.967-.575-3.853-1.475-4.44-3.664a9.447,9.447,0,0,1,.013-3.125c.172-2.044.416-4.081.643-6.233.322.295.646.558.931.858a15.19,15.19,0,0,0,5.927,3.945c2.591.933,5.258.638,7.909.391,1.668-.156,3.33-.391,4.994-.586a17.287,17.287,0,0,1,3.327-.333,18.294,18.294,0,0,1,4.349.857,12.034,12.034,0,0,1,6.886,5.952,14.891,14.891,0,0,1,1.74,6.216,24.63,24.63,0,0,1-.877,9.209,23.235,23.235,0,0,1-3.553,6.911,17.371,17.371,0,0,1-6.679,5.576,17.93,17.93,0,0,1-5.494,1.277,17.537,17.537,0,0,1-7.434-.78c-4.736-1.552-7.389-4.916-8.352-9.7a10.73,10.73,0,0,1,3.054-10.015,39.249,39.249,0,0,1,3.249-3.216,17.979,17.979,0,0,1,2.811-1.6l.14.178" transform="translate(-38.542 -21.052)" fill="#fe0000" fill-rule="evenodd"/>
      <path id="Path_5468" data-name="Path 5468" d="M11.008,142.231a14.672,14.672,0,0,0-1.372-2.559c-1.488-1.809-2.66-1.5-4.623-.473a21.9,21.9,0,0,0-2.369,1.671,16.762,16.762,0,0,1,2.275-7.381,8.868,8.868,0,0,1,12.122-3.357c2.752,1.427,5.436,2.993,8.1,4.582A36.085,36.085,0,0,0,35.585,138.8a84.442,84.442,0,0,0,8.34,1.345,35.631,35.631,0,0,0,5.78.363c2.793-.1,5.582-.408,8.362-.725a52.2,52.2,0,0,0,10.3-2.347,47.421,47.421,0,0,0,12.227-6.616,12.575,12.575,0,0,1,6.995-2.49,8.279,8.279,0,0,1,6.473,2.715,9.457,9.457,0,0,1,2.385,6.389c.007.24.134.475.163.718a6.973,6.973,0,0,1,.006.787c-1.482-.336-2.975-1.609-4.331-.5a17.747,17.747,0,0,0-2.666,3.58c-.127-.159-.4-.5-.67-.842-1.708-2.157-2.752-2.447-5.168-1.229a79.459,79.459,0,0,1-13.593,5.52,93.518,93.518,0,0,1-10.2,2.349,72.9,72.9,0,0,1-8.543.774,58.607,58.607,0,0,1-7.01,0c-6.52-.447-12.953-1.454-18.982-4.116-2.431-1.074-4.7-2.526-7.041-3.8a14.644,14.644,0,0,0-2.487-1.259c-2.476-.77-3.5,0-4.776,2.419a2.681,2.681,0,0,0-.137.4" transform="translate(-1.067 -51.779)" fill="#fe0000" fill-rule="evenodd"/>
      <path id="Path_5469" data-name="Path 5469" d="M94.843,37.369c1.469.534,2.861,1.127,4.3,1.547a67.407,67.407,0,0,0,6.546,1.662,16.073,16.073,0,0,0,8.45-.725,8.672,8.672,0,0,0,4.186-2.96l4.776,7.15a10.222,10.222,0,0,1-4.279,2.159,22.973,22.973,0,0,1-9.265.25,21.468,21.468,0,0,1-9.238-3.425,17.573,17.573,0,0,1-5.48-5.659" transform="translate(-38.268 -14.886)" fill="#fe0000" fill-rule="evenodd"/>
      <path id="Path_5470" data-name="Path 5470" d="M111.825,24.159a6.42,6.42,0,0,1,4.324,2.236,4.073,4.073,0,0,1,.129,5.122,6.934,6.934,0,0,1-9.836.565,4.129,4.129,0,0,1,.449-6.534,7.1,7.1,0,0,1,4.934-1.389" transform="translate(-42.384 -9.746)" fill="#fe0000" fill-rule="evenodd"/>
      <path id="Path_5471" data-name="Path 5471" d="M85.245,14.786c-4.089-1.309-4.195-3.61-2.948-7.338a14.86,14.86,0,0,1,5.97-.062,5.269,5.269,0,0,1,3.79,4.651c.232,3.124-1.393,5.314-3.583,7.119-2.291,1.889-4.715,3.629-7.172,5.3-2.075,1.412-4.357,2.524-6.4,3.979a19.369,19.369,0,0,0-3.254,3.282,1.6,1.6,0,0,0,.091,2.137,3.429,3.429,0,0,1,.319.767A16.956,16.956,0,0,1,70,34.607c-1.371-.177-1.92-1.425-1.562-3.154.687-3.327,2.832-5.506,5.568-7.234,1.962-1.24,4.056-2.306,5.875-3.726a43.133,43.133,0,0,0,4.351-4.371,14.208,14.208,0,0,0,1.009-1.336m1.437-2.1a1.372,1.372,0,0,0,1.531-1.247A1.348,1.348,0,0,0,86.778,10.1a1.367,1.367,0,0,0-1.532,1.244,1.342,1.342,0,0,0,1.435,1.346" transform="translate(-27.572 -2.867)" fill="#fff" fill-rule="evenodd"/>
      <path id="Path_5472" data-name="Path 5472" d="M50.685,15.323A6.392,6.392,0,0,1,54.266,9.83c.91-.5,1.969-.712,2.924-1.136s1.5-.012,2.015.705c1.513,2.1,1.2,3.815-.5,5.664-.339.37-.709.712-1.064,1.068-.936.938-1,1.754.037,2.612,1.287,1.065,2.7,1.973,4.064,2.947.452.324.914.635,1.362.965a1.445,1.445,0,0,1,.465,2.02c-.558.94-1.464,1.363-2.252.891-1.858-1.114-3.725-2.229-5.476-3.5a38.031,38.031,0,0,1-3.633-3.227,5.139,5.139,0,0,1-1.521-3.517m7-3.8a1.408,1.408,0,0,0-1.475-1.421,1.579,1.579,0,0,0-1.489,1.248,1.78,1.78,0,0,0,1.506,1.526,1.433,1.433,0,0,0,1.458-1.353" transform="translate(-20.451 -3.44)" fill="#fff" fill-rule="evenodd"/>
      <path id="Path_5473" data-name="Path 5473" d="M80.485,41.8a3.284,3.284,0,0,1,1.9,3.823A8.822,8.822,0,0,1,78,50.7c-1.272.763-2.573,1.492-3.769,2.363a4.318,4.318,0,0,0-1.525,2.89c-.116.659-.129,1.392-.944,1.521a2.137,2.137,0,0,1-2.036-1.033c-1.478-1.875-.627-4.353,1.331-5.751,1.812-1.294,3.727-2.442,5.541-3.732a9.676,9.676,0,0,0,3.883-5.16" transform="translate(-27.834 -16.865)" fill="#fff" fill-rule="evenodd"/>
      <path id="Path_5474" data-name="Path 5474" d="M81.011,59.236c1.54.543,2.285,2.857,1.221,4.64a11.39,11.39,0,0,1-4.513,4.068,21.392,21.392,0,0,0-2.551,1.686,3.929,3.929,0,0,0-1.451,2.721c-.23,1.561-1.181,1.864-2.409.833a3.3,3.3,0,0,1,.184-5.018,26.3,26.3,0,0,1,4-2.859c2.363-1.449,4.392-3.159,5.368-5.858a.99.99,0,0,1,.147-.213" transform="translate(-28.341 -23.901)" fill="#fff" fill-rule="evenodd"/>
      <path id="Path_5475" data-name="Path 5475" d="M81.224,74.877a2.438,2.438,0,0,1,1.59,1.977A4.668,4.668,0,0,1,80.76,81.38c-1.454,1.137-3.11,2.013-4.634,3.065a4.235,4.235,0,0,0-1.8,3.108c-.14,1.112-1.021,1.408-1.955.695a3.172,3.172,0,0,1-.317-4.56c1.437-1.624,3.415-2.452,5.123-3.675a9.221,9.221,0,0,0,4.044-5.137" transform="translate(-28.745 -30.212)" fill="#fff" fill-rule="evenodd"/>
      <path id="Path_5476" data-name="Path 5476" d="M82,89.612c1.905,1.183,1.476,3.518.242,4.971a13.908,13.908,0,0,1-4.171,2.94,4.939,4.939,0,0,0-2.5,3.5c-.206.937-.772,1.13-1.546.573a2.906,2.906,0,0,1,.324-4.819c1.123-.767,2.316-1.43,3.434-2.2,1.835-1.267,3.506-2.7,4.22-4.962" transform="translate(-29.407 -36.157)" fill="#fff" fill-rule="evenodd"/>
      <path id="Path_5477" data-name="Path 5477" d="M81.527,105.539a4.749,4.749,0,0,1-.5,5.151,12.472,12.472,0,0,1-2.092,2.1,5.819,5.819,0,0,0-2.189,4.164,3.258,3.258,0,0,1-.081.383c-.793.072-.927-.576-1.092-1.043a4.1,4.1,0,0,1,1.154-4.338c.568-.616,1.245-1.132,1.866-1.7a10.424,10.424,0,0,0,2.929-4.718" transform="translate(-30.402 -42.584)" fill="#fff" fill-rule="evenodd"/>
      <path id="Path_5478" data-name="Path 5478" d="M75.952,31.363v-5.69H80.32c.067.346.191.827.251,1.316.179,1.475.1,1.578-1.214,2.331-1.093.627-2.162,1.3-3.4,2.043" transform="translate(-30.646 -10.359)" fill="#fff" fill-rule="evenodd"/>
      <path id="Path_5479" data-name="Path 5479" d="M76.445,8.161c.836.081,1.676.137,2.507.248.883.118.857.8.9,1.479.057.83-.353,1.333-1.08,1.352a22.836,22.836,0,0,1-3.732-.214c-.77-.107-.947-.791-.916-1.517a1.189,1.189,0,0,1,1.087-1.284,8.924,8.924,0,0,1,1.225-.01c0-.018,0-.036,0-.054" transform="translate(-29.908 -3.293)" fill="#fff" fill-rule="evenodd"/>
      <path id="Path_5480" data-name="Path 5480" d="M81.122,41.317c.075.313.082.343.089.373.586,2.4-.908,3.685-2.606,4.85-.577.4-1.193.734-1.959,1.2a22.255,22.255,0,0,1,.039-2.872c.05-.365.482-.737.825-.992,1.152-.858,2.342-1.666,3.611-2.559" transform="translate(-30.915 -16.671)" fill="#fff" fill-rule="evenodd"/>
      <path id="Path_5481" data-name="Path 5481" d="M77.42,64.5c-.525-3.311.1-4.332,4.111-6.027.715,2.007-.27,3.377-1.773,4.507-.725.545-1.522.994-2.338,1.52" transform="translate(-31.174 -23.595)" fill="#fff" fill-rule="evenodd"/>
      <path id="Path_5482" data-name="Path 5482" d="M79.96,120.2c.673,2.013-.069,3.525-.976,4.936l3.191,3.85-.2.221-3.7-3.169c-1.438,1.156-2.9,2.377-4.891,2.687,2.587-2.479,5.826-4.417,6.575-8.525" transform="translate(-29.61 -48.497)" fill="#fff" fill-rule="evenodd"/>
      <path id="Path_5483" data-name="Path 5483" d="M77.957,79.973c-.542-2.885.938-3.883,3.641-5.048.8,2.551-1.1,3.893-3.641,5.048" transform="translate(-31.41 -30.231)" fill="#fff" fill-rule="evenodd"/>
      <path id="Path_5484" data-name="Path 5484" d="M78.6,94.376c-.363-2.628.4-3.024,3.042-4.414.521,2.251-.4,3.209-3.042,4.414" transform="translate(-31.679 -36.299)" fill="#fff" fill-rule="evenodd"/>
      <path id="Path_5485" data-name="Path 5485" d="M81.613,103.888a5.393,5.393,0,0,1-2.256,5.154c-.474-2.688-.3-4.255,2.256-5.154" transform="translate(-31.936 -41.918)" fill="#fff" fill-rule="evenodd"/>
      <path id="Path_5486" data-name="Path 5486" d="M77.759,1.6a1.072,1.072,0,0,1,.908,1.187c.008.785-.537.949-1.113.913-.642-.041-1.243-.286-1.2-1.114.042-.728.5-1.006,1.4-.987" transform="translate(-30.809 -0.644)" fill="#fff" fill-rule="evenodd"/>
      <path id="Path_5487" data-name="Path 5487" d="M79.723,16.925c-1.47,0-2.9.019-4.324-.024-.178-.005-.346-.339-.625-.632,2.458-.393,4.662-.117,4.949.656" transform="translate(-30.17 -6.493)" fill="#fff" fill-rule="evenodd"/>
      <path id="Path_5488" data-name="Path 5488" d="M80.363,122.756c-.805-1.446-.5-2.56,1-3.6a4.076,4.076,0,0,1-1,3.6" transform="translate(-32.25 -48.077)" fill="#fff" fill-rule="evenodd"/>
      <path id="Path_5489" data-name="Path 5489" d="M79.941,20.936c-.246.15-.495.431-.739.428-1.209-.015-2.416-.094-3.623-.182-.16-.012-.307-.2-.46-.305.161-.1.321-.277.484-.28,1.371-.022,2.742-.013,4.113-.013l.225.352" transform="translate(-30.31 -8.304)" fill="#fff" fill-rule="evenodd"/>
      <path id="Path_5490" data-name="Path 5490" d="M77.029,23.207l3.415.188a2.5,2.5,0,0,1-3.415-.188" transform="translate(-31.08 -9.364)" fill="#fff" fill-rule="evenodd"/>
      <path id="Path_5491" data-name="Path 5491" d="M98.121,14.712a1.342,1.342,0,0,1-1.435-1.346,1.367,1.367,0,0,1,1.532-1.244,1.348,1.348,0,0,1,1.434,1.343,1.372,1.372,0,0,1-1.531,1.247" transform="translate(-39.011 -4.891)" fill="#fe0000" fill-rule="evenodd"/>
      <path id="Path_5492" data-name="Path 5492" d="M60.418,12.6a1.433,1.433,0,0,1-1.458,1.353,1.78,1.78,0,0,1-1.506-1.526,1.579,1.579,0,0,1,1.489-1.248A1.408,1.408,0,0,1,60.418,12.6" transform="translate(-23.182 -4.509)" fill="#fe0000" fill-rule="evenodd"/>
      <path id="Path_5493" data-name="Path 5493" d="M33.862,139.986c.574.314.864.466,1.445.762-.217,1.424-.313,2.141-.478,3.58,1.024-1.022,1.525-1.543,2.5-2.6.572.264.86.392,1.437.64-1.433,1.452-2.177,2.162-3.714,3.539-.66-.31-.988-.469-1.642-.8.118-2.067.209-3.094.448-5.127" transform="translate(-13.482 -56.483)" fill="#fff"/>
      <path id="Path_5494" data-name="Path 5494" d="M40.612,147.415c.586.211.879.312,1.468.506a1,1,0,0,0,0,.558.9.9,0,0,0,.574.529.855.855,0,0,0,.56.051.4.4,0,0,0,.24-.628,2.334,2.334,0,0,0-.68-.549,3.465,3.465,0,0,1-1.192-1.094,1.111,1.111,0,0,1-.063-1.019,1.2,1.2,0,0,1,.477-.551,1.521,1.521,0,0,1,.82-.218,3.484,3.484,0,0,1,1.212.273,2.728,2.728,0,0,1,1.256.816,1.469,1.469,0,0,1,.221,1.216c-.572-.159-.858-.243-1.428-.416a.734.734,0,0,0-.072-.524.839.839,0,0,0-.435-.32.666.666,0,0,0-.423-.046.326.326,0,0,0-.225.2.267.267,0,0,0,.033.232,1.359,1.359,0,0,0,.432.354,8.073,8.073,0,0,1,1.257.9,1.586,1.586,0,0,1,.452.713,1.257,1.257,0,0,1-.027.733,1.378,1.378,0,0,1-.536.708,1.693,1.693,0,0,1-.943.292,3.436,3.436,0,0,1-1.288-.259,2.809,2.809,0,0,1-1.6-1.134,1.718,1.718,0,0,1-.089-1.323" transform="translate(-16.35 -58.506)" fill="#fff"/>
      <path id="Path_5495" data-name="Path 5495" d="M50.077,147.224c.769.246,1.155.362,1.931.581-.015,1.2-.014,1.8,0,3,.611-1.033.909-1.553,1.491-2.6.779.2,1.17.289,1.954.458-.4,1.856-.6,2.785-1,4.641-.529-.114-.793-.174-1.32-.3.336-1.408.5-2.113.842-3.522-.719,1.317-1.09,1.972-1.855,3.271-.476-.122-.713-.185-1.186-.317-.015-1.507-.01-2.26.024-3.76-.412,1.389-.617,2.084-1.028,3.473-.521-.155-.781-.234-1.3-.4.579-1.809.868-2.715,1.447-4.523" transform="translate(-19.622 -59.403)" fill="#fff"/>
      <path id="Path_5496" data-name="Path 5496" d="M64.974,150.642c.6.094.9.138,1.506.216l-.215,1.648c.678.088,1.018.128,1.7.2l.167-1.654c.607.061.911.088,1.519.132-.141,1.894-.211,2.842-.351,4.736-.658-.049-.987-.078-1.645-.144.078-.764.116-1.146.193-1.911-.693-.07-1.039-.11-1.73-.2l-.248,1.9c-.653-.085-.978-.132-1.629-.234.294-1.875.441-2.815.736-4.69" transform="translate(-25.919 -60.782)" fill="#fff"/>
      <path id="Path_5497" data-name="Path 5497" d="M74.432,154.02a2.423,2.423,0,0,1,.785-1.771,2.7,2.7,0,0,1,1.893-.588,2.752,2.752,0,0,1,1.9.635,2.378,2.378,0,0,1,.719,1.767,2.67,2.67,0,0,1-.27,1.373,2.042,2.042,0,0,1-.883.845,3.116,3.116,0,0,1-1.476.292,3.537,3.537,0,0,1-1.479-.3,2.066,2.066,0,0,1-.908-.852,2.471,2.471,0,0,1-.277-1.4m1.578.08a1.48,1.48,0,0,0,.258,1.042,1.167,1.167,0,0,0,1.6.031,1.635,1.635,0,0,0,.282-1.1,1.425,1.425,0,0,0-.288-.981,1.019,1.019,0,0,0-.771-.316.979.979,0,0,0-.759.3,1.542,1.542,0,0,0-.32,1.031" transform="translate(-30.03 -61.193)" fill="#fff"/>
      <path id="Path_5498" data-name="Path 5498" d="M84.329,154.759c.608-.058.911-.091,1.516-.165a1,1,0,0,0,.235.5.88.88,0,0,0,.733.236.838.838,0,0,0,.521-.191.4.4,0,0,0-.05-.67,2.268,2.268,0,0,0-.836-.209,3.367,3.367,0,0,1-1.519-.484,1.117,1.117,0,0,1-.482-.9,1.213,1.213,0,0,1,.193-.7,1.5,1.5,0,0,1,.637-.545,3.373,3.373,0,0,1,1.193-.267,2.658,2.658,0,0,1,1.463.208,1.471,1.471,0,0,1,.709,1.007c-.579.1-.869.144-1.45.228a.735.735,0,0,0-.284-.444.81.81,0,0,0-.521-.1.644.644,0,0,0-.4.137.328.328,0,0,0-.119.273.266.266,0,0,0,.126.2,1.333,1.333,0,0,0,.533.137,7.884,7.884,0,0,1,1.5.286,1.573,1.573,0,0,1,.7.455,1.269,1.269,0,0,1,.284.675,1.393,1.393,0,0,1-.181.869,1.683,1.683,0,0,1-.721.664,3.36,3.36,0,0,1-1.258.311,2.725,2.725,0,0,1-1.9-.348,1.731,1.731,0,0,1-.632-1.16" transform="translate(-34.026 -61.07)" fill="#fff"/>
      <path id="Path_5499" data-name="Path 5499" d="M92.837,150.718c1-.13,1.5-.206,2.5-.379a1.84,1.84,0,0,1,1.291.146,1.594,1.594,0,0,1,.388,2.168,2.091,2.091,0,0,1-1.34.658c-.346.06-.519.088-.865.142.109.7.163,1.045.273,1.741-.654.1-.982.15-1.637.235-.243-1.883-.366-2.826-.609-4.709m1.825,1.784.381-.061a1.03,1.03,0,0,0,.605-.252.459.459,0,0,0,.115-.4.513.513,0,0,0-.221-.346.859.859,0,0,0-.61-.054l-.435.07.164,1.046" transform="translate(-37.459 -60.641)" fill="#fff"/>
      <path id="Path_5500" data-name="Path 5500" d="M101.152,149.322c.6-.131.895-.2,1.489-.348.459,1.841.689,2.764,1.147,4.605-.644.16-.966.236-1.613.378-.409-1.853-.614-2.781-1.023-4.634" transform="translate(-40.814 -60.109)" fill="#fff"/>
      <path id="Path_5501" data-name="Path 5501" d="M104.865,147.742c1.8-.471,2.69-.744,4.455-1.363l.389,1.105c-.6.212-.907.314-1.516.509l1.1,3.4c-.633.2-.95.3-1.587.486-.4-1.372-.6-2.059-1-3.431-.612.178-.919.263-1.534.425l-.3-1.133" transform="translate(-42.312 -59.062)" fill="#fff"/>
      <path id="Path_5502" data-name="Path 5502" d="M117.812,148.064c-.693.289-1.042.427-1.74.694.015.33.022.495.034.825-.638.24-.958.356-1.6.577.143-2.058.183-3.085.2-5.125.628-.24.941-.365,1.563-.625,1.426,1.463,2.166,2.178,3.7,3.568-.641.291-.962.432-1.608.7-.222-.246-.333-.37-.552-.619m-.707-.818c-.475-.543-.709-.817-1.172-1.367.047.716.067,1.075.1,1.794.429-.166.644-.252,1.071-.427" transform="translate(-46.202 -58.268)" fill="#fff"/>
      <path id="Path_5503" data-name="Path 5503" d="M121.115,142.347c.563-.262.843-.4,1.4-.675l1.6,3.2c.924-.461,1.383-.7,2.291-1.2l.565,1.024c-1.518.839-2.289,1.23-3.849,1.956-.8-1.721-1.2-2.582-2.007-4.3" transform="translate(-48.868 -57.163)" fill="#fff"/>
      <path id="Path_5504" data-name="Path 5504" d="M59.3,12.973a.781.781,0,1,1-.781-.781.781.781,0,0,1,.781.781" transform="translate(-23.295 -4.919)" fill="#fff" fill-rule="evenodd"/>
      <path id="Path_5505" data-name="Path 5505" d="M98.529,13.766a.781.781,0,1,1-.781-.781.781.781,0,0,1,.781.781" transform="translate(-39.125 -5.239)" fill="#fff" fill-rule="evenodd"/>
    </g>
  </g>
</svg>
